<svg width="574" height="423" viewBox="0 0 574 423" fill="none" xmlns="http://www.w3.org/2000/svg">
<g opacity="0.1">
<path d="M224.568 259.148L210.176 267.456L203.956 256.683L218.348 248.374C220.309 247.242 221.708 245.992 222.544 244.626C223.381 243.259 223.741 241.832 223.624 240.345C223.519 238.815 223.037 237.309 222.181 235.825C221.262 234.234 220.122 232.932 218.758 231.917C217.421 230.886 215.906 230.312 214.213 230.195C212.504 230.05 210.669 230.544 208.707 231.677L199.564 236.956L226.763 284.066L212.809 292.122L179.39 234.239L202.487 220.903C207.125 218.225 211.604 216.771 215.923 216.539C220.268 216.292 224.198 217.132 227.714 219.06C231.215 220.961 234.06 223.807 236.248 227.597C238.405 231.334 239.386 235.114 239.191 238.937C238.995 242.761 237.666 246.426 235.203 249.933C232.751 253.398 229.206 256.47 224.568 259.148ZM291.095 185.966L303.377 239.832L288.389 248.485L276.239 178.322L285.741 172.837L291.095 185.966ZM329.178 224.936L288.63 187.389L279.777 176.28L289.398 170.725L344.205 216.26L329.178 224.936ZM316.158 203.67L322.378 214.444L292.681 231.59L286.461 220.816L316.158 203.67ZM364.065 127.616L397.484 185.5L383.569 193.533L350.15 135.65L364.065 127.616ZM460.303 149.231L447.462 156.645L441.344 145.865L454.106 138.497C456.756 136.967 458.628 135.038 459.723 132.71C460.843 130.367 461.154 127.661 460.654 124.592C460.166 121.481 458.851 118.071 456.709 114.361L455.263 111.856C453.656 109.073 451.97 106.795 450.204 105.023C448.45 103.209 446.638 101.905 444.766 101.113C442.88 100.294 440.935 99.9854 438.932 100.188C436.955 100.375 434.946 101.058 432.905 102.236L420.025 109.673L413.805 98.8991L426.685 91.4624C430.608 89.1978 434.589 87.8002 438.629 87.2698C442.681 86.6975 446.618 86.9685 450.442 88.0826C454.277 89.155 457.823 91.0125 461.08 93.6552C464.349 96.256 467.169 99.6104 469.541 103.718L470.941 106.144C473.297 110.225 474.792 114.345 475.426 118.502C476.086 122.644 475.935 126.636 474.972 130.478C474.01 134.32 472.289 137.858 469.81 141.092C467.341 144.284 464.172 146.997 460.303 149.231ZM422.034 94.1479L455.453 152.031L441.499 160.088L408.08 102.204L422.034 94.1479Z" fill="#34A853"/>
<path fill-rule="evenodd" clip-rule="evenodd" d="M474.483 37.6387L42.811 286.865C38.7427 289.214 37.3488 294.416 39.6976 298.484L88.6072 383.198C90.9561 387.267 96.1583 388.66 100.227 386.312L531.899 137.085C535.967 134.737 537.361 129.534 535.012 125.466L486.103 40.7521C483.754 36.6837 478.552 35.2898 474.483 37.6387ZM38.558 279.498C30.4213 284.196 27.6335 294.601 32.3312 302.737L81.2408 387.451C85.9385 395.588 96.3429 398.376 104.48 393.678L536.152 144.452C544.289 139.754 547.077 129.35 542.379 121.213L493.469 36.4991C488.772 28.3624 478.367 25.5745 470.23 30.2722L38.558 279.498Z" fill="#34A853"/>
<path fill-rule="evenodd" clip-rule="evenodd" d="M474.483 37.6387L42.811 286.865C38.7427 289.214 37.3488 294.416 39.6976 298.484L88.6072 383.198C90.9561 387.267 96.1583 388.66 100.227 386.312L531.899 137.085C535.967 134.737 537.361 129.534 535.012 125.466L486.103 40.7521C483.754 36.6837 478.552 35.2898 474.483 37.6387ZM38.558 279.498C30.4213 284.196 27.6335 294.601 32.3312 302.737L81.2408 387.451C85.9385 395.588 96.3429 398.376 104.48 393.678L536.152 144.452C544.289 139.754 547.077 129.35 542.379 121.213L493.469 36.4991C488.772 28.3624 478.367 25.5745 470.23 30.2722L38.558 279.498Z" fill="#34A853"/>
<path d="M108.686 293.038L117.96 287.683C119.773 286.637 121.504 285.997 123.154 285.764C124.803 285.531 126.295 285.735 127.628 286.375C128.973 287.008 130.093 288.102 130.99 289.656C131.769 291.005 132.21 292.254 132.312 293.403C132.415 294.553 132.26 295.642 131.847 296.672C131.439 297.685 130.847 298.666 130.073 299.617L128.819 301.744L121.033 306.239L118.468 301.871L124.231 298.544C124.954 298.127 125.478 297.652 125.803 297.118C126.128 296.585 126.273 296.013 126.236 295.401C126.204 294.772 125.994 294.123 125.608 293.454C125.216 292.774 124.755 292.263 124.227 291.921C123.698 291.579 123.116 291.418 122.481 291.44C121.857 291.455 121.194 291.665 120.493 292.07L116.899 294.144L127.973 313.325L122.292 316.605L108.686 293.038ZM135.192 309.157L123.962 301.742L129.965 298.234L141.138 305.4L141.278 305.643L135.192 309.157Z" fill="#34A853"/>
<path d="M140.993 286.946L153.048 307.826L147.593 310.975L133.595 286.728L138.677 283.794L140.993 286.946ZM154.731 285.92L154.927 286.26C155.662 287.533 156.199 288.799 156.537 290.057C156.875 291.315 156.991 292.514 156.887 293.653C156.782 294.793 156.434 295.835 155.843 296.781C155.257 297.709 154.408 298.494 153.297 299.136C152.25 299.74 151.215 300.028 150.192 300C149.169 299.972 148.167 299.695 147.186 299.168C146.206 298.64 145.253 297.938 144.33 297.061C143.407 296.185 142.514 295.211 141.651 294.141L141.399 293.704C140.853 292.335 140.425 291.021 140.115 289.762C139.799 288.491 139.661 287.305 139.701 286.203C139.741 285.101 140.002 284.108 140.485 283.225C140.979 282.336 141.749 281.589 142.796 280.984C143.907 280.343 145.005 279.989 146.09 279.924C147.185 279.853 148.246 280.046 149.273 280.504C150.304 280.944 151.28 281.625 152.201 282.547C153.121 283.468 153.965 284.593 154.731 285.92ZM149.473 289.409L149.276 289.069C148.884 288.39 148.477 287.797 148.056 287.292C147.629 286.776 147.186 286.37 146.727 286.074C146.279 285.772 145.817 285.607 145.341 285.579C144.864 285.552 144.373 285.685 143.866 285.978C143.283 286.314 142.845 286.689 142.552 287.103C142.263 287.5 142.106 287.951 142.08 288.455C142.059 288.942 142.156 289.483 142.37 290.078C142.589 290.657 142.91 291.299 143.332 292.005L144.098 293.332C144.55 294.165 145.048 294.841 145.593 295.361C146.131 295.87 146.727 296.167 147.379 296.25C148.032 296.334 148.747 296.152 149.524 295.703C150.042 295.404 150.405 295.036 150.613 294.599C150.815 294.152 150.894 293.653 150.85 293.103C150.799 292.542 150.652 291.951 150.408 291.329C150.165 290.707 149.853 290.067 149.473 289.409Z" fill="#34A853"/>
<path fill-rule="evenodd" clip-rule="evenodd" d="M87.9064 284.862C96.7933 276.424 108.011 270.851 120.104 268.866C129.023 267.403 137.425 263.703 144.527 258.112L151.113 252.927C156.202 248.921 163.66 250.356 166.898 255.965L189.771 295.583C192.51 300.327 191.196 306.375 186.737 309.556L176.84 316.614C169.702 321.704 161.586 325.258 153.004 327.051L150.558 327.562C140.431 329.678 131.092 334.572 123.59 341.696L120.36 344.762C115.372 349.498 107.269 348.324 103.831 342.368L80.9368 302.715C78.4793 298.458 79.2595 293.072 82.8237 289.688L87.9064 284.862ZM121.344 276.421C110.765 278.157 100.952 283.032 93.1776 290.413L88.0949 295.239C87.0969 296.187 86.8785 297.695 87.5665 298.887L110.46 338.54C111.423 340.208 113.692 340.537 115.089 339.211L118.318 336.144C126.852 328.041 137.474 322.475 148.993 320.068L151.439 319.557C158.984 317.981 166.12 314.856 172.395 310.381L182.292 303.323C183.54 302.432 183.908 300.739 183.141 299.41L160.268 259.793C159.361 258.223 157.273 257.821 155.848 258.942L149.262 264.127C141.144 270.518 131.539 274.748 121.344 276.421Z" fill="#34A853"/>
<path fill-rule="evenodd" clip-rule="evenodd" d="M227.697 154.584L355.317 80.9027L357.018 83.8493L229.398 157.53L227.697 154.584ZM477.531 14.271L402.732 57.456L401.031 54.5095L475.83 11.3244C486.066 5.41437 499.156 8.92164 505.066 19.1582L562.344 118.367C568.254 128.604 564.747 141.693 554.51 147.603L479.712 190.788L478.011 187.842L552.809 144.657C561.418 139.686 564.368 128.678 559.398 120.068L502.119 20.8594C497.149 12.2502 486.14 9.30048 477.531 14.271ZM137.221 206.82L215.316 161.732L217.018 164.679L138.922 209.767L137.221 206.82ZM117.221 218.367L124.84 213.969L126.541 216.915L118.922 221.314L117.221 218.367ZM18.6125 275.299L79.1255 240.362L80.8267 243.308L20.3137 278.246C11.7045 283.216 8.75481 294.225 13.7253 302.834L71.0037 402.043C75.9742 410.652 86.9828 413.602 95.592 408.631L156.105 373.694L157.806 376.641L97.2932 411.578C87.0566 417.488 73.9672 413.981 68.0572 403.744L10.7787 304.535C4.86869 294.298 8.37598 281.209 18.6125 275.299ZM203.521 350.247L331.14 276.566L329.439 273.62L201.819 347.301L203.521 350.247ZM343.521 269.418L421.616 224.33L419.915 221.383L341.82 266.472L343.521 269.418ZM433.997 217.182L441.616 212.783L439.915 209.836L432.296 214.235L433.997 217.182Z" fill="#34A853"/>
</g>
</svg>
