<svg width="574" height="423" viewBox="0 0 574 423" fill="none" xmlns="http://www.w3.org/2000/svg">
<g opacity="0.1">
<path d="M211.611 216.106L225.565 208.05L247.393 245.857C249.995 250.362 251.257 254.722 251.181 258.936C251.09 263.123 249.807 266.991 247.332 270.54C244.858 274.089 241.328 277.187 236.743 279.834C232.211 282.451 227.763 283.959 223.4 284.358C219.063 284.741 215.032 283.941 211.307 281.957C207.593 279.932 204.435 276.666 201.834 272.16L180.006 234.353L194 226.274L215.828 264.081C217.205 266.466 218.674 268.216 220.235 269.328C221.781 270.415 223.416 270.92 225.139 270.844C226.862 270.768 228.664 270.187 230.546 269.1C232.454 267.999 233.859 266.728 234.76 265.289C235.66 263.851 236.014 262.198 235.819 260.331C235.61 258.438 234.816 256.298 233.439 253.913L211.611 216.106ZM282.693 175.067L316.112 232.95L302.198 240.984L260.929 216.786L281.724 252.804L267.77 260.861L234.351 202.977L248.305 194.921L289.574 219.118L268.779 183.1L282.693 175.067ZM336.697 194.88L322.306 203.189L316.086 192.416L330.477 184.107C332.438 182.974 333.837 181.725 334.674 180.358C335.51 178.992 335.87 177.565 335.754 176.078C335.648 174.548 335.167 173.042 334.31 171.557C333.392 169.967 332.251 168.665 330.888 167.649C329.551 166.619 328.035 166.045 326.342 165.927C324.633 165.783 322.798 166.277 320.837 167.41L311.693 172.689L338.892 219.798L324.938 227.855L291.519 169.971L314.617 156.636C319.255 153.958 323.733 152.503 328.052 152.272C332.397 152.024 336.328 152.865 339.844 154.793C343.344 156.694 346.189 159.54 348.377 163.33C350.535 167.067 351.516 170.847 351.32 174.67C351.125 178.494 349.795 182.159 347.332 185.666C344.88 189.131 341.335 192.202 336.697 194.88ZM369.028 141.441L381.311 195.308L366.323 203.961L354.173 133.798L363.674 128.312L369.028 141.441ZM407.112 180.412L366.563 142.865L357.711 131.755L367.332 126.201L422.139 171.736L407.112 180.412ZM394.092 159.146L400.312 169.92L370.615 187.065L364.395 176.292L394.092 159.146ZM407.803 102.835L441.221 160.718L427.307 168.752L393.888 110.868L407.803 102.835ZM469.845 144.193L457.004 151.606L450.887 140.826L463.648 133.459C466.298 131.929 468.171 129.999 469.265 127.671C470.386 125.328 470.696 122.622 470.197 119.553C469.708 116.443 468.393 113.033 466.251 109.322L464.805 106.817C463.198 104.035 461.512 101.757 459.747 99.9846C457.992 98.1703 456.18 96.8669 454.309 96.0743C452.422 95.2552 450.477 94.9469 448.474 95.1494C446.497 95.3366 444.488 96.0193 442.448 97.1976L429.567 104.634L423.347 93.8606L436.227 86.4239C440.15 84.1593 444.131 82.7617 448.172 82.2313C452.223 81.659 456.161 81.93 459.984 83.0442C463.819 84.1165 467.365 85.974 470.623 88.6167C473.891 91.2175 476.711 94.5719 479.083 98.68L480.483 101.105C482.84 105.187 484.334 109.306 484.968 113.464C485.628 117.606 485.477 121.598 484.515 125.44C483.552 129.282 481.831 132.82 479.352 136.053C476.884 139.245 473.715 141.958 469.845 144.193ZM431.576 89.1094L464.995 146.993L451.041 155.049L417.622 97.1658L431.576 89.1094Z" fill="#DE2910"/>
<path fill-rule="evenodd" clip-rule="evenodd" d="M475.299 37.6387L43.6262 286.865C39.5579 289.214 38.1639 294.416 40.5128 298.484L89.4224 383.198C91.7713 387.267 96.9735 388.661 101.042 386.312L532.714 137.085C536.783 134.737 538.177 129.534 535.828 125.466L486.918 40.7522C484.569 36.6838 479.367 35.2899 475.299 37.6387ZM39.3732 279.499C31.2365 284.196 28.4487 294.601 33.1464 302.737L82.056 387.451C86.7537 395.588 97.1581 398.376 105.295 393.678L536.967 144.452C545.104 139.754 547.892 129.35 543.194 121.213L494.285 36.4991C489.587 28.3624 479.182 25.5746 471.046 30.2723L39.3732 279.499Z" fill="#DE2910"/>
<path fill-rule="evenodd" clip-rule="evenodd" d="M475.299 37.6387L43.6262 286.865C39.5579 289.214 38.1639 294.416 40.5128 298.484L89.4224 383.198C91.7713 387.267 96.9735 388.661 101.042 386.312L532.714 137.085C536.783 134.737 538.177 129.534 535.828 125.466L486.918 40.7522C484.569 36.6838 479.367 35.2899 475.299 37.6387ZM39.3732 279.499C31.2365 284.196 28.4487 294.601 33.1464 302.737L82.056 387.451C86.7537 395.588 97.1581 398.376 105.295 393.678L536.967 144.452C545.104 139.754 547.892 129.35 543.194 121.213L494.285 36.4991C489.587 28.3624 479.182 25.5746 471.046 30.2723L39.3732 279.499Z" fill="#DE2910"/>
<path d="M109.5 293.037L118.775 287.683C120.588 286.636 122.319 285.996 123.969 285.763C125.618 285.53 127.11 285.734 128.443 286.374C129.788 287.008 130.908 288.102 131.805 289.656C132.584 291.004 133.025 292.253 133.127 293.403C133.23 294.552 133.075 295.642 132.662 296.671C132.254 297.684 131.662 298.666 130.888 299.616L129.634 301.743L121.848 306.238L119.283 301.87L125.046 298.544C125.769 298.126 126.293 297.651 126.618 297.118C126.943 296.585 127.087 296.012 127.051 295.4C127.019 294.772 126.809 294.123 126.423 293.454C126.031 292.774 125.57 292.263 125.042 291.92C124.513 291.578 123.931 291.418 123.296 291.439C122.672 291.454 122.009 291.664 121.308 292.069L117.714 294.144L128.788 313.324L123.107 316.604L109.5 293.037ZM136.007 309.156L124.777 301.742L130.779 298.233L141.953 305.4L142.093 305.643L136.007 309.156Z" fill="#DE2910"/>
<path d="M141.808 286.945L153.863 307.825L148.408 310.974L134.41 286.728L139.492 283.793L141.808 286.945ZM155.546 285.919L155.742 286.259C156.477 287.533 157.014 288.798 157.352 290.056C157.69 291.315 157.806 292.513 157.702 293.653C157.597 294.792 157.249 295.835 156.658 296.78C156.072 297.708 155.223 298.493 154.112 299.135C153.065 299.739 152.03 300.028 151.007 300C149.984 299.972 148.982 299.694 148.001 299.167C147.02 298.64 146.068 297.938 145.145 297.061C144.221 296.184 143.328 295.21 142.466 294.14L142.214 293.703C141.668 292.335 141.24 291.021 140.93 289.761C140.614 288.49 140.476 287.304 140.516 286.202C140.556 285.1 140.817 284.107 141.3 283.224C141.794 282.335 142.564 281.588 143.611 280.984C144.722 280.342 145.82 279.989 146.905 279.924C148 279.852 149.061 280.045 150.088 280.503C151.119 280.943 152.095 281.624 153.016 282.546C153.936 283.468 154.78 284.592 155.546 285.919ZM150.287 289.409L150.091 289.069C149.699 288.389 149.292 287.797 148.871 287.291C148.444 286.776 148.001 286.37 147.542 286.073C147.094 285.771 146.632 285.606 146.156 285.579C145.679 285.552 145.188 285.684 144.681 285.977C144.098 286.314 143.66 286.689 143.367 287.103C143.078 287.5 142.921 287.95 142.895 288.454C142.874 288.941 142.971 289.482 143.185 290.078C143.404 290.656 143.724 291.299 144.146 292.005L144.913 293.332C145.365 294.164 145.863 294.841 146.408 295.361C146.946 295.87 147.542 296.166 148.194 296.25C148.847 296.333 149.562 296.151 150.339 295.702C150.857 295.403 151.22 295.035 151.428 294.599C151.63 294.151 151.709 293.652 151.665 293.102C151.614 292.542 151.467 291.95 151.223 291.329C150.979 290.707 150.668 290.067 150.287 289.409Z" fill="#DE2910"/>
<path fill-rule="evenodd" clip-rule="evenodd" d="M88.7213 284.861C97.6083 276.423 108.826 270.85 120.919 268.866C129.838 267.402 138.24 263.702 145.342 258.111L151.928 252.927C157.017 248.92 164.475 250.356 167.713 255.965L190.586 295.582C193.325 300.326 192.011 306.374 187.552 309.555L177.655 316.613C170.517 321.703 162.401 325.257 153.819 327.05L151.373 327.561C141.246 329.677 131.907 334.571 124.404 341.695L121.175 344.762C116.187 349.497 108.084 348.323 104.646 342.367L81.7517 302.714C79.2942 298.458 80.0744 293.071 83.6386 289.687L88.7213 284.861ZM122.159 276.42C111.58 278.156 101.767 283.031 93.9925 290.413L88.9098 295.239C87.9118 296.186 87.6934 297.695 88.3815 298.886L111.275 338.54C112.238 340.207 114.507 340.536 115.904 339.21L119.133 336.144C127.667 328.041 138.288 322.474 149.808 320.068L152.254 319.557C159.799 317.98 166.935 314.856 173.21 310.38L183.107 303.322C184.355 302.432 184.723 300.738 183.956 299.41L161.083 259.792C160.176 258.222 158.088 257.82 156.663 258.942L150.077 264.127C141.959 270.518 132.354 274.747 122.159 276.42Z" fill="#DE2910"/>
<path fill-rule="evenodd" clip-rule="evenodd" d="M228.512 154.584L356.132 80.9028L357.833 83.8493L230.214 157.53L228.512 154.584ZM478.346 14.2711L403.547 57.4561L401.846 54.5095L476.645 11.3245C486.881 5.41443 499.971 8.9217 505.881 19.1582L563.159 118.367C569.069 128.604 565.562 141.693 555.326 147.603L480.527 190.788L478.826 187.842L553.624 144.657C562.234 139.686 565.183 128.678 560.213 120.069L502.934 20.8594C497.964 12.2502 486.955 9.30054 478.346 14.2711ZM138.036 206.82L216.131 161.732L217.833 164.679L139.737 209.767L138.036 206.82ZM118.036 218.367L125.655 213.969L127.356 216.915L119.737 221.314L118.036 218.367ZM19.4277 275.299L79.9407 240.362L81.6419 243.308L21.1289 278.246C12.5197 283.216 9.56999 294.225 14.5405 302.834L71.8189 402.043C76.7894 410.652 87.798 413.602 96.4071 408.631L156.92 373.694L158.621 376.641L98.1083 411.578C87.8718 417.488 74.7824 413.981 68.8723 403.744L11.5939 304.535C5.68387 294.298 9.19117 281.209 19.4277 275.299ZM204.336 350.247L331.955 276.566L330.254 273.62L202.634 347.301L204.336 350.247ZM344.336 269.418L422.432 224.33L420.73 221.383L342.635 266.472L344.336 269.418ZM434.813 217.182L442.432 212.783L440.73 209.836L433.111 214.235L434.813 217.182Z" fill="#DE2910"/>
</g>
</svg>
